<?xml version="1.0" standalone="no"?><!DOCTYPE svg PUBLIC "-//W3C//DTD SVG 1.1//EN" "http://www.w3.org/Graphics/SVG/1.1/DTD/svg11.dtd"><svg t="1599536174514" class="icon" viewBox="0 0 1024 1024" version="1.1" xmlns="http://www.w3.org/2000/svg" p-id="3275" xmlns:xlink="http://www.w3.org/1999/xlink" width="200" height="200"><defs><style type="text/css"></style></defs><path d="M455.168 712.9344c-34.56 0-62.592 17.8688-62.592 39.9104h125.1584c0.0256-22.0416-28.0064-39.9104-62.5664-39.9104z" fill="#1AC678" p-id="3276"></path><path d="M713.5232 91.7504H196.8128a42.5472 42.5472 0 0 0 0 85.0176h18.4832v68.8128a240.256 240.256 0 0 0 149.5808 222.08 240.256 240.256 0 0 0-149.5808 222.08v61.6192h-18.5344a41.472 41.472 0 0 0-29.8752 12.416 41.5488 41.5488 0 0 0-12.6208 30.08c0 23.4496 19.072 42.496 42.496 42.496h331.9552a9.6 9.6 0 0 0 0-19.2H196.7616a23.296 23.296 0 0 1-23.296-23.296c0-6.2464 2.4064-12.032 6.9888-16.4864a22.528 22.528 0 0 1 16.3072-6.8096h323.7632a9.6 9.6 0 0 0 0-19.2H234.496v-61.6192c0-99.2 66.688-186.7264 162.2016-212.8128a9.5744 9.5744 0 0 0 3.0208-1.5104l0.256-0.128a9.4208 9.4208 0 0 0 3.1232-4.608c0.0768-0.2048 0.2816-0.2816 0.3328-0.4864s0-0.4096 0.0512-0.6144c0.128-0.64 0.128-1.2544 0.128-1.92 0-0.6656 0-1.28-0.128-1.92-0.0512-0.2048 0.0256-0.4096-0.0512-0.6144-0.1024-0.384-0.3584-0.64-0.512-0.9984a9.3184 9.3184 0 0 0-0.9216-1.8176 8.7808 8.7808 0 0 0-1.1008-1.28 8.9088 8.9088 0 0 0-1.4848-1.28 9.1904 9.1904 0 0 0-1.5872-0.7936c-0.384-0.1792-0.7168-0.4608-1.1264-0.5632-95.488-26.0864-162.2016-113.6128-162.2016-212.8128V176.768h441.4208v68.8128c0 99.2-66.688 186.7264-162.2016 212.8128-0.4352 0.128-0.7424 0.4096-1.152 0.5888a8.6016 8.6016 0 0 0-3.0976 2.0992 8.064 8.064 0 0 0-1.9968 3.0976c-0.128 0.3328-0.384 0.6144-0.4864 0.9728-0.0512 0.2048 0 0.4096-0.0512 0.6144-0.128 0.64-0.128 1.2544-0.128 1.92 0 0.64 0 1.28 0.128 1.8944 0.0512 0.2048-0.0256 0.4096 0.0512 0.6144 0.0512 0.2048 0.256 0.3072 0.3328 0.4864a9.472 9.472 0 0 0 3.0976 4.5824c0.0768 0.0768 0.2048 0.0768 0.2816 0.1536a9.5744 9.5744 0 0 0 3.0208 1.5104 221.4656 221.4656 0 0 1 136.32 108.9792 9.6 9.6 0 0 0 16.9216-9.0368 240.9216 240.9216 0 0 0-121.3952-109.184 240.2304 240.2304 0 0 0 149.5552-222.08V176.768h18.4064a42.5472 42.5472 0 0 0 0-85.0176z m0 65.8176H196.8128a23.3472 23.3472 0 0 1 0-46.6176h516.6848a23.296 23.296 0 0 1 0.0256 46.6176z" fill="#008CFF" p-id="3277"></path><path d="M625.5872 245.4272H284.7488a170.4192 170.4192 0 0 0 340.8384 0z" fill="#1AC678" p-id="3278"></path><path d="M455.168 739.2512a16.4608 16.4608 0 0 1-16.4608-16.4608V360.8832a16.4608 16.4608 0 0 1 32.9216 0v361.9072a16.4608 16.4608 0 0 1-16.4608 16.4608z" fill="#1AC678" p-id="3279"></path><path d="M706.816 932.2496c-89.8304 0-162.9184-73.088-162.9184-162.9184s73.088-162.9184 162.9184-162.9184 162.9184 73.088 162.9184 162.9184-73.0624 162.9184-162.9184 162.9184z m0-306.6624c-79.2576 0-143.7184 64.4864-143.7184 143.7184s64.4864 143.7184 143.7184 143.7184 143.7184-64.4864 143.7184-143.7184-64.4608-143.7184-143.7184-143.7184z" fill="#008CFF" p-id="3280"></path><path d="M706.816 884.1728c-63.3344 0-114.8672-51.5328-114.8672-114.8672s51.5328-114.8672 114.8672-114.8672a6.4 6.4 0 0 1 0 12.8c-56.2688 0-102.0672 45.7984-102.0672 102.0672s45.7984 102.0672 102.0672 102.0672 102.0672-45.7984 102.0672-102.0672a6.4 6.4 0 0 1 12.8 0 114.9952 114.9952 0 0 1-114.8672 114.8672z" fill="#00CFFF" p-id="3281"></path><path d="M706.816 778.9056a9.6 9.6 0 0 1-9.6-9.6v-58.3424a9.6 9.6 0 0 1 19.2 0v58.3424a9.6 9.6 0 0 1-9.6 9.6z" fill="#008CFF" p-id="3282"></path><path d="M765.1584 778.9056H706.816a9.6 9.6 0 0 1 0-19.2h58.3424a9.6 9.6 0 0 1 0 19.2z" fill="#008CFF" p-id="3283"></path></svg>